<svg width="199" height="181" viewBox="0 0 199 181" fill="none" xmlns="http://www.w3.org/2000/svg">
<rect width="199" height="181" rx="10" fill="#E6E6E6"/>
<path d="M51.7733 13H29.5503V168.561H51.7733V13Z" fill="#9B9B9B"/>
<path d="M29.0337 57.4462H57.8459C58.5132 57.4411 59.173 57.3045 59.7875 57.0443C60.402 56.784 60.9591 56.4052 61.4271 55.9295C61.8951 55.4537 62.2648 54.8904 62.5149 54.2717C62.765 53.653 62.8908 52.9911 62.8849 52.3238V40.2844C62.8893 39.6204 62.7622 38.9621 62.5108 38.3475C62.2594 37.7329 61.8887 37.1742 61.4202 36.7036C60.9517 36.2331 60.3946 35.8599 59.7811 35.6058C59.1676 35.3517 58.5099 35.2217 57.8459 35.2232H29.0337C28.3701 35.2224 27.713 35.353 27.1002 35.6074C26.4873 35.8619 25.9309 36.2351 25.463 36.7056C24.9951 37.1761 24.6249 37.7346 24.3738 38.3488C24.1228 38.963 23.9958 39.6209 24.0002 40.2844V52.3904C24.0002 55.2016 26.2392 57.4517 29.0337 57.4517V57.4462ZM29.0337 129.671H57.8459C59.1863 129.662 60.4688 129.123 61.413 128.172C62.3572 127.22 62.8864 125.934 62.8849 124.593V112.526C62.8908 111.861 62.7648 111.201 62.5141 110.585C62.2634 109.969 61.8931 109.408 61.4245 108.936C60.9559 108.464 60.3984 108.089 59.7841 107.834C59.1699 107.578 58.5111 107.447 57.8459 107.448H29.0337C28.3689 107.448 27.7108 107.58 27.0971 107.835C26.4835 108.091 25.9267 108.466 25.4587 108.938C24.9907 109.41 24.6208 109.97 24.3705 110.586C24.1202 111.202 23.9943 111.861 24.0002 112.526V124.593C24.0002 127.415 26.2392 129.671 29.0337 129.671Z" fill="#D3D3D3"/>
<path d="M69.8515 140.782H161.471C164.793 140.779 167.978 139.458 170.327 137.109C172.676 134.76 173.997 131.575 174 128.253V36.6391C173.997 33.3173 172.676 30.1324 170.327 27.7835C167.978 25.4347 164.793 24.1138 161.471 24.1108H69.8571C66.5353 24.1138 63.3504 25.4347 61.0015 27.7835C58.6527 30.1324 57.3318 33.3173 57.3289 36.6391V128.253C57.3318 131.574 58.6519 134.758 60.9996 137.107C63.3472 139.456 66.5307 140.777 69.8515 140.782Z" fill="#46A4FB"/>
<path d="M87.7472 118.615C87.3997 118.615 87.0556 118.547 86.7347 118.413C86.4138 118.28 86.1224 118.085 85.8772 117.839C85.632 117.592 85.4378 117.3 85.3059 116.979C85.1739 116.657 85.1067 116.313 85.1082 115.965V104.537C85.1082 103.076 86.286 101.893 87.7472 101.893H93.5918C95.053 101.893 96.2364 103.076 96.2364 104.537V115.965C96.2277 116.664 95.9463 117.332 95.4522 117.826C94.9581 118.32 94.2905 118.601 93.5918 118.61L87.7472 118.615ZM132.193 118.615H138.038C138.387 118.621 138.734 118.556 139.057 118.424C139.381 118.293 139.675 118.098 139.922 117.851C140.168 117.603 140.363 117.309 140.493 116.985C140.624 116.661 140.688 116.315 140.682 115.965V104.537C140.683 104.19 140.615 103.845 140.483 103.524C140.35 103.203 140.155 102.911 139.909 102.666C139.664 102.42 139.372 102.225 139.051 102.092C138.73 101.96 138.385 101.892 138.038 101.893H132.193C131.846 101.893 131.503 101.961 131.182 102.094C130.861 102.227 130.57 102.422 130.325 102.667C130.08 102.913 129.886 103.205 129.753 103.526C129.621 103.846 129.553 104.19 129.554 104.537V115.965C129.554 117.432 130.732 118.615 132.193 118.615Z" fill="#321B41"/>
<path d="M137.082 107.448H88.6916C86.6915 107.448 85.1082 105.947 85.1082 104.064V90.7803H140.666V104.064C140.666 105.953 139.027 107.448 137.082 107.448Z" fill="#FFB02E"/>
<path d="M132.06 46.334H93.7417C88.986 46.334 85.147 50.3897 85.147 55.4454V90.78H140.705V55.4454C140.705 50.3897 136.871 46.334 132.06 46.334Z" fill="#F4F4F4"/>
<path d="M82.941 85.2361H81.7187C80.552 85.2361 79.6076 84.0916 79.552 82.6138V71.1912C79.552 69.7078 80.552 68.5688 81.7187 68.5688H82.941C84.1633 68.5688 85.1078 69.78 85.1078 71.1912V82.6138C85.1078 84.0916 84.1077 85.2361 82.941 85.2361ZM144.054 85.225H142.832C141.61 85.225 140.665 84.0805 140.665 82.6082V71.1856C140.665 69.7078 141.665 68.5688 142.832 68.5688H144.054C145.277 68.5688 146.221 69.7744 146.221 71.1856V82.6082C146.221 84.0805 145.221 85.225 144.054 85.225Z" fill="#321B41"/>
<path d="M132.744 85.2251H93.1532C91.8032 85.2251 90.7031 83.8472 90.7031 82.1583V57.4463H135.149V82.1583C135.199 83.8472 134.094 85.2251 132.744 85.2251Z" fill="#26C9FC"/>
<path d="M97.6642 96.3415H128.187C128.371 96.3437 128.554 96.3094 128.724 96.2406C128.895 96.1717 129.05 96.0698 129.18 95.9406C129.311 95.8114 129.415 95.6575 129.486 95.4879C129.557 95.3183 129.593 95.1363 129.593 94.9525C129.593 94.7687 129.557 94.5867 129.486 94.4171C129.415 94.2475 129.311 94.0936 129.18 93.9645C129.05 93.8353 128.895 93.7333 128.724 93.6645C128.554 93.5957 128.371 93.5614 128.187 93.5636H97.6642C97.4804 93.5614 97.2979 93.5957 97.1275 93.6645C96.9571 93.7333 96.802 93.8353 96.6712 93.9645C96.5405 94.0936 96.4367 94.2475 96.3658 94.4171C96.295 94.5867 96.2585 94.7687 96.2585 94.9525C96.2585 95.7303 96.8752 96.3415 97.6642 96.3415ZM103.22 101.892H122.632C123.421 101.892 124.037 101.281 124.037 100.503C124.037 99.7249 123.421 99.1138 122.632 99.1138H103.22C103.036 99.1108 102.853 99.1446 102.682 99.2131C102.512 99.2817 102.356 99.3836 102.225 99.513C102.094 99.6423 101.991 99.7965 101.92 99.9664C101.849 100.136 101.814 100.319 101.814 100.503C101.814 101.281 102.431 101.892 103.22 101.892Z" fill="#E6E6E6"/>
<path d="M140.666 96.335V104.063C140.666 105.785 139.305 107.174 137.593 107.413C136.913 107.344 136.282 107.026 135.824 106.519C135.365 106.012 135.111 105.352 135.11 104.669V99.0962C135.11 97.5739 136.343 96.335 137.86 96.335H140.666ZM85.1082 104.063C85.1082 105.785 86.4249 107.18 88.1749 107.413C88.8582 107.348 89.4929 107.031 89.9551 106.524C90.4173 106.016 90.674 105.355 90.675 104.669V99.0962C90.675 98.3648 90.3849 97.6633 89.8682 97.1457C89.3516 96.628 88.6507 96.3364 87.9194 96.335H85.1082V104.063Z" fill="#FFF478"/>
<path d="M135.099 57.4459H90.7031V53.7291C90.7031 52.7179 91.8032 51.8901 93.1477 51.8901H132.705C134.049 51.8901 135.149 52.7179 135.149 53.7291V57.4459H135.099Z" fill="#321B41"/>
</svg>
