<svg width="6" height="10" viewBox="0 0 6 10" fill="none" xmlns="http://www.w3.org/2000/svg">
<path d="M0.197954 9.80237C0.0659848 9.67062 0 9.51462 0 9.33439C0 9.1545 0.0659848 8.99868 0.197954 8.86693L4.06467 5.00659L0.184757 1.13307C0.0615858 1.0101 0 0.85639 0 0.671937C0 0.487484 0.0659848 0.329381 0.197954 0.197628C0.329924 0.0658761 0.486176 0 0.666711 0C0.846893 0 1.00297 0.0658761 1.13494 0.197628L5.56912 4.63768C5.62191 4.69038 5.65939 4.74747 5.68156 4.80896C5.70338 4.87044 5.71429 4.93632 5.71429 5.00659C5.71429 5.07686 5.70338 5.14273 5.68156 5.20422C5.65939 5.2657 5.62191 5.32279 5.56912 5.37549L1.12174 9.81555C0.99857 9.93851 0.846893 10 0.666711 10C0.486176 10 0.329924 9.93412 0.197954 9.80237Z" fill="#014E6D" fill-opacity="0.6"/>
</svg>
