<svg width="64" height="76" viewBox="0 0 64 76" fill="none" xmlns="http://www.w3.org/2000/svg">
<path d="M0 56C0 59.52 1.56 62.68 4 64.88V72C4 74.2 5.8 76 8 76H12C14.2 76 16 74.2 16 72V68H48V72C48 74.2 49.8 76 52 76H56C58.2 76 60 74.2 60 72V64.88C62.44 62.68 64 59.52 64 56V16C64 2 49.68 0 32 0C14.32 0 0 2 0 16V56ZM14 60C10.68 60 8 57.32 8 54C8 50.68 10.68 48 14 48C17.32 48 20 50.68 20 54C20 57.32 17.32 60 14 60ZM50 60C46.68 60 44 57.32 44 54C44 50.68 46.68 48 50 48C53.32 48 56 50.68 56 54C56 57.32 53.32 60 50 60ZM56 36H8V16H56V36Z" fill="#4979D1"/>
</svg>
